<svg width="18" height="18" viewBox="0 0 18 18" fill="none" xmlns="http://www.w3.org/2000/svg">
<g clip-path="url(#clip0_5_1352)">
<path d="M7.5 10.995V12.2145C7.49717 12.4715 7.42836 12.7234 7.30019 12.9461C7.17201 13.1689 6.98875 13.3549 6.768 13.4865C6.29936 13.8336 5.91813 14.2852 5.65461 14.8055C5.3911 15.3258 5.25256 15.9003 5.25 16.4835" stroke="#3AD693" stroke-width="1.5" stroke-linecap="round" stroke-linejoin="round"/>
<path d="M10.5 10.995V12.2145C10.5028 12.4715 10.5716 12.7234 10.6998 12.9461C10.828 13.1689 11.0112 13.3549 11.232 13.4865C11.7006 13.8336 12.0819 14.2852 12.3454 14.8055C12.6089 15.3258 12.7474 15.9003 12.75 16.4835" stroke="#3AD693" stroke-width="1.5" stroke-linecap="round" stroke-linejoin="round"/>
<path d="M13.5 6.75H14.625C15.1223 6.75 15.5992 6.55246 15.9508 6.20083C16.3025 5.84919 16.5 5.37228 16.5 4.875C16.5 4.37772 16.3025 3.90081 15.9508 3.54917C15.5992 3.19754 15.1223 3 14.625 3H13.5" stroke="#3AD693" stroke-width="1.5" stroke-linecap="round" stroke-linejoin="round"/>
<path d="M3 16.5H15" stroke="#3AD693" stroke-width="1.5" stroke-linecap="round" stroke-linejoin="round"/>
<path d="M4.5 6.75C4.5 7.94347 4.97411 9.08807 5.81802 9.93198C6.66193 10.7759 7.80653 11.25 9 11.25C10.1935 11.25 11.3381 10.7759 12.182 9.93198C13.0259 9.08807 13.5 7.94347 13.5 6.75V2.25C13.5 2.05109 13.421 1.86032 13.2803 1.71967C13.1397 1.57902 12.9489 1.5 12.75 1.5H5.25C5.05109 1.5 4.86032 1.57902 4.71967 1.71967C4.57902 1.86032 4.5 2.05109 4.5 2.25V6.75Z" stroke="#3AD693" stroke-width="1.5" stroke-linecap="round" stroke-linejoin="round"/>
<path d="M4.5 6.75H3.375C2.87772 6.75 2.40081 6.55246 2.04917 6.20083C1.69754 5.84919 1.5 5.37228 1.5 4.875C1.5 4.37772 1.69754 3.90081 2.04917 3.54917C2.40081 3.19754 2.87772 3 3.375 3H4.5" stroke="#3AD693" stroke-width="1.5" stroke-linecap="round" stroke-linejoin="round"/>
</g>
<defs>
<clipPath id="clip0_5_1352">
<rect width="18" height="18" fill="white"/>
</clipPath>
</defs>
</svg>
